<?xml version="1.0" standalone="no"?>
<!DOCTYPE svg PUBLIC "-//W3C//DTD SVG 20010904//EN"
 "http://www.w3.org/TR/2001/REC-SVG-20010904/DTD/svg10.dtd">
<svg height="100%" width="100%" id="svg" viewBox="0 0 1440 600" xmlns="http://www.w3.org/2000/svg" class="transition duration-300 ease-in-out delay-150"><defs><linearGradient id="gradient"><stop offset="5%" stop-color="#8ed1fc88"></stop><stop offset="95%" stop-color="#32ded488"></stop></linearGradient></defs><path d="M 0,600 C 0,600 0,200 0,200 C 107.77990430622009,155.23444976076553 215.55980861244018,110.46889952153109 316,132 C 416.4401913875598,153.53110047846891 509.5406698564593,241.3588516746412 612,262 C 714.4593301435407,282.6411483253588 826.2775119617226,236.0956937799043 906,218 C 985.7224880382774,199.9043062200957 1033.3492822966507,210.2583732057416 1117,212 C 1200.6507177033493,213.7416267942584 1320.3253588516745,206.8708133971292 1440,200 C 1440,200 1440,600 1440,600 Z" stroke="none" stroke-width="0" fill="url(#gradient)" class="transition-all duration-300 ease-in-out delay-150"></path><defs><linearGradient id="gradient"><stop offset="5%" stop-color="#8ed1fcff"></stop><stop offset="95%" stop-color="#32ded4ff"></stop></linearGradient></defs><path d="M 0,600 C 0,600 0,400 0,400 C 117.28229665071768,428.22966507177034 234.56459330143537,456.4593301435407 318,464 C 401.43540669856463,471.5406698564593 451.02392344497616,458.39234449760767 555,462 C 658.9760765550238,465.60765550239233 817.3397129186603,485.9712918660287 909,457 C 1000.6602870813397,428.0287081339713 1025.6172248803828,349.7224880382775 1103,332 C 1180.3827751196172,314.2775119617225 1310.1913875598086,357.1387559808612 1440,400 C 1440,400 1440,600 1440,600 Z" stroke="none" stroke-width="0" fill="url(#gradient)" class="transition-all duration-300 ease-in-out delay-150"></path></svg>
